<svg xmlns="http://www.w3.org/2000/svg" xmlns:xlink="http://www.w3.org/1999/xlink" width="500" zoomAndPan="magnify" viewBox="0 0 375 374.999991" height="500" preserveAspectRatio="xMidYMid meet" version="1.0"><defs><clipPath id="3210a3164e"><path d="M 90 208 L 250 208 L 250 368 L 90 368 Z M 90 208 " clip-rule="nonzero"/></clipPath><clipPath id="2f84f5a5e5"><path d="M 82.996094 318.429688 L 200.546875 200.878906 L 257.113281 257.445312 L 139.5625 374.996094 Z M 82.996094 318.429688 " clip-rule="nonzero"/></clipPath><clipPath id="fe8074630b"><path d="M 95.191406 306.230469 L 188.269531 213.15625 C 191.503906 209.921875 195.890625 208.101562 200.46875 208.101562 C 205.042969 208.101562 209.429688 209.921875 212.664062 213.15625 L 244.835938 245.328125 C 248.070312 248.5625 249.886719 252.949219 249.886719 257.523438 C 249.886719 262.097656 248.070312 266.488281 244.835938 269.722656 L 151.757812 362.796875 C 148.523438 366.035156 144.136719 367.851562 139.5625 367.851562 C 134.988281 367.851562 130.597656 366.035156 127.363281 362.796875 L 95.191406 330.628906 C 91.957031 327.390625 90.140625 323.003906 90.140625 318.429688 C 90.140625 313.855469 91.957031 309.46875 95.191406 306.230469 Z M 95.191406 306.230469 " clip-rule="nonzero"/></clipPath><clipPath id="f6871e9cd1"><path d="M 87 12 L 250 12 L 250 170 L 87 170 Z M 87 12 " clip-rule="nonzero"/></clipPath><clipPath id="140d8c0031"><path d="M 134.644531 5.1875 L 257.101562 117.621094 L 202.996094 176.550781 L 80.539062 64.113281 Z M 134.644531 5.1875 " clip-rule="nonzero"/></clipPath><clipPath id="938a233f13"><path d="M 147.351562 16.855469 L 244.308594 105.878906 C 247.679688 108.972656 249.683594 113.28125 249.878906 117.851562 C 250.074219 122.421875 248.445312 126.882812 245.351562 130.253906 L 214.578125 163.765625 C 211.484375 167.136719 207.179688 169.136719 202.609375 169.332031 C 198.039062 169.527344 193.578125 167.898438 190.207031 164.804688 L 93.246094 75.78125 C 89.875 72.6875 87.875 68.382812 87.679688 63.808594 C 87.484375 59.238281 89.113281 54.777344 92.207031 51.410156 L 122.976562 17.894531 C 126.070312 14.523438 130.378906 12.523438 134.949219 12.328125 C 139.519531 12.132812 143.980469 13.761719 147.351562 16.855469 Z M 147.351562 16.855469 " clip-rule="nonzero"/></clipPath><clipPath id="6aaf0b738d"><path d="M 90 71 L 250 71 L 250 232 L 90 232 Z M 90 71 " clip-rule="nonzero"/></clipPath><clipPath id="2b37e02547"><path d="M 82.996094 181.703125 L 200.546875 64.152344 L 257.113281 120.71875 L 139.5625 238.269531 Z M 82.996094 181.703125 " clip-rule="nonzero"/></clipPath><clipPath id="3cf6de4fa7"><path d="M 95.191406 169.507812 L 188.269531 76.429688 C 191.503906 73.195312 195.890625 71.378906 200.46875 71.378906 C 205.042969 71.378906 209.429688 73.195312 212.664062 76.429688 L 244.835938 108.601562 C 248.070312 111.835938 249.886719 116.222656 249.886719 120.800781 C 249.886719 125.375 248.070312 129.761719 244.835938 132.996094 L 151.757812 226.074219 C 148.523438 229.308594 144.136719 231.125 139.5625 231.125 C 134.988281 231.125 130.597656 229.308594 127.363281 226.074219 L 95.191406 193.902344 C 91.957031 190.667969 90.140625 186.28125 90.140625 181.703125 C 90.140625 177.128906 91.957031 172.742188 95.191406 169.507812 Z M 95.191406 169.507812 " clip-rule="nonzero"/></clipPath><clipPath id="364ca2fa57"><path d="M 223.558594 153.234375 L 294.453125 153.234375 L 294.453125 224.128906 L 223.558594 224.128906 Z M 223.558594 153.234375 " clip-rule="nonzero"/></clipPath><clipPath id="aac0f09833"><path d="M 259.003906 153.234375 C 239.425781 153.234375 223.558594 169.105469 223.558594 188.683594 C 223.558594 208.257812 239.425781 224.128906 259.003906 224.128906 C 278.582031 224.128906 294.453125 208.257812 294.453125 188.683594 C 294.453125 169.105469 278.582031 153.234375 259.003906 153.234375 Z M 259.003906 153.234375 " clip-rule="nonzero"/></clipPath></defs><g clip-path="url(#3210a3164e)"><g clip-path="url(#2f84f5a5e5)"><g clip-path="url(#fe8074630b)"><path fill="#004aad" d="M 82.996094 318.429688 L 200.546875 200.878906 L 257.113281 257.445312 L 139.5625 374.996094 Z M 82.996094 318.429688 " fill-opacity="1" fill-rule="nonzero"/></g></g></g><g clip-path="url(#f6871e9cd1)"><g clip-path="url(#140d8c0031)"><g clip-path="url(#938a233f13)"><path fill="#004aad" d="M 134.644531 5.1875 L 257.101562 117.621094 L 202.996094 176.550781 L 80.539062 64.113281 Z M 134.644531 5.1875 " fill-opacity="1" fill-rule="nonzero"/></g></g></g><g clip-path="url(#6aaf0b738d)"><g clip-path="url(#2b37e02547)"><g clip-path="url(#3cf6de4fa7)"><path fill="#00ffba" d="M 82.996094 181.703125 L 200.546875 64.152344 L 257.113281 120.71875 L 139.5625 238.269531 Z M 82.996094 181.703125 " fill-opacity="1" fill-rule="nonzero"/></g></g></g><g clip-path="url(#364ca2fa57)"><g clip-path="url(#aac0f09833)"><path fill="#00ffba" d="M 223.558594 153.234375 L 294.453125 153.234375 L 294.453125 224.128906 L 223.558594 224.128906 Z M 223.558594 153.234375 " fill-opacity="1" fill-rule="nonzero"/></g></g></svg>